<?xml version="1.0" standalone="no"?>
<!DOCTYPE svg PUBLIC "-//W3C//DTD SVG 20010904//EN"
 "http://www.w3.org/TR/2001/REC-SVG-20010904/DTD/svg10.dtd">
<svg version="1.0" xmlns="http://www.w3.org/2000/svg"
 width="400.000000pt" height="400.000000pt" viewBox="0 0 400.000000 400.000000"
 preserveAspectRatio="xMidYMid meet">
<metadata>
Created by potrace 1.11, written by Peter Selinger 2001-2013
</metadata>
<g transform="translate(0.000000,400.000000) scale(0.100000,-0.100000)"
fill="#000000" stroke="none">
<path d="M1342 2984 c-181 -48 -309 -178 -357 -360 -56 -215 55 -450 259 -551
l78 -38 38 -117 c21 -65 65 -174 99 -244 l61 -126 -35 -32 c-113 -107 -114
-306 -1 -419 63 -64 109 -82 206 -82 69 0 93 4 127 23 110 58 167 148 168 268
l0 72 105 54 c58 30 150 83 205 119 l100 65 43 -18 c151 -66 327 -27 442 99
68 74 93 144 94 258 1 81 -2 97 -31 157 -40 85 -106 151 -191 191 -61 29 -76
32 -162 32 -97 0 -146 -15 -231 -71 -26 -17 -26 -16 -124 54 -55 39 -141 96
-192 128 -85 53 -93 60 -93 89 0 99 -63 238 -145 320 -121 121 -304 172 -463
129z m810 -731 l126 -66 -29 -58 c-63 -123 -60 -243 8 -370 l36 -66 -48 -44
c-52 -48 -226 -181 -263 -201 -20 -11 -25 -10 -34 5 -62 112 -223 175 -341
134 l-45 -15 -36 100 c-35 97 -96 310 -96 336 0 7 15 12 40 12 170 0 351 115
427 273 l33 66 47 -20 c27 -11 105 -50 175 -86z"/>
</g>
</svg>
